<svg width="100" height="26" viewBox="0 0 100 26" fill="none" xmlns="http://www.w3.org/2000/svg">
<path d="M41.3058 14.409C40.9637 13.524 40.2985 12.9694 39.405 12.6586C39.1479 12.5697 38.8803 12.5066 38.6253 12.4338C38.835 12.3567 39.0406 12.2691 39.2414 12.1713C40.1545 11.6811 40.6111 10.9026 40.7256 9.90342C40.9054 8.35186 40.1075 7.02014 38.6359 6.425C37.8126 6.09452 36.95 6 36.0713 6C32.3124 6 28.5544 6 24.7973 6H24.6069V19.8164H24.7558C28.726 19.8164 32.6933 19.8227 36.6663 19.8101C37.2066 19.803 37.7454 19.7506 38.2769 19.6532C39.0375 19.5348 39.751 19.2111 40.34 18.7171C41.1253 18.0435 41.4905 17.1718 41.5467 16.1692C41.5783 15.5685 41.5257 14.9754 41.3058 14.409ZM28.4429 8.5493H28.6129C30.7108 8.5493 32.8094 8.5493 34.9088 8.5493C35.2742 8.53708 35.6387 8.5941 35.9828 8.71734C36.6002 8.961 36.9283 9.46092 36.9114 10.1107C36.8931 10.8514 36.4162 11.2884 35.7362 11.4347C35.42 11.4991 35.0981 11.5315 34.7753 11.5313C32.7291 11.5397 30.6851 11.5355 28.6389 11.5355H28.4429V8.5493ZM36.268 17.1669C35.9881 17.224 35.7036 17.2552 35.418 17.2601C33.1274 17.2685 30.8389 17.2664 28.5476 17.2685C28.5167 17.2685 28.4858 17.2643 28.4422 17.2622V14.0316H28.6227C30.7413 14.0316 32.8612 14.0316 34.9825 14.0316C35.503 14.0316 36.0214 14.054 36.5209 14.2206C37.2528 14.4643 37.597 14.9572 37.5745 15.7148C37.5534 16.527 37.1327 17.0024 36.268 17.1669Z" fill="#1F1C23"/>
<path d="M53.4425 12.71C52.5034 12.7226 51.5726 12.8382 50.6791 13.1518C49.9676 13.4025 49.3269 13.768 48.8956 14.4066C48.2761 15.3259 48.2367 16.3363 48.5184 17.3676C48.8254 18.4837 49.603 19.1825 50.6623 19.5746C52.0636 20.0976 53.5023 20.1102 54.9472 19.7846C56.2467 19.4913 57.3355 18.8345 58.1749 17.7884C58.1961 17.7686 58.2197 17.7514 58.2452 17.7373V19.8162H61.718V17.6778L61.7244 16.5225C61.7138 15.3777 61.7244 14.2308 61.7096 13.086C61.7079 12.5801 61.6677 12.075 61.5895 11.575C61.4132 10.5297 60.9236 9.64954 60.0596 9.00258C59.4976 8.59466 58.8591 8.30367 58.1819 8.14696C56.8712 7.82278 55.5429 7.78987 54.2033 7.88439C52.889 7.97962 51.6183 8.10845 50.3904 8.55937V11.5449C51.6035 10.9148 52.8679 10.5962 54.2539 10.5073C55.0827 10.4555 55.906 10.5073 56.6857 10.8314C57.5083 11.1766 57.9213 11.8117 57.9979 12.7037L53.4425 12.71ZM57.9951 14.7146C57.889 15.5058 57.5434 16.1612 56.921 16.659C56.2741 17.18 55.5162 17.4131 54.6985 17.4916C54.1864 17.5413 53.6807 17.535 53.1876 17.3907C52.6439 17.229 52.2112 16.9356 52.0784 16.351C51.9456 15.7663 52.0995 15.2762 52.5701 15.0073C52.7575 14.9065 52.9669 14.8533 53.1798 14.8526L57.9951 14.7146Z" fill="#1F1C23"/>
<path d="M82.7316 13.3842V6.00922L79.0557 7.28074V19.8273H82.7316V17.1435L84.8459 15.3405L88.3005 19.8217H92.9999L87.5307 13.1076C89.1463 11.6996 91.0429 10.0149 92.7119 8.55647H88.1825L82.7316 13.3842Z" fill="#1F1C23"/>
<path d="M76.8397 18.0795C76.4126 18.6123 75.8563 18.968 75.2346 19.2368C74.4409 19.5799 73.6057 19.7592 72.7529 19.867C71.6797 20.0012 70.596 20.0324 69.5167 19.9601C68.1343 19.867 66.7842 19.6296 65.5451 18.968C64.4767 18.3994 63.704 17.5774 63.3528 16.3997C63.3359 16.3458 63.3177 16.2898 63.305 16.2338C63.2988 16.2086 63.2939 16.1831 63.2903 16.1575H67.2865C67.3325 16.2535 67.3836 16.3469 67.4396 16.4375C67.8316 17.0551 68.4413 17.3401 69.129 17.4878C69.8609 17.6425 70.6041 17.6404 71.3459 17.5991C71.8432 17.5704 72.3385 17.5165 72.8133 17.3576C73.0239 17.2888 73.2246 17.193 73.4104 17.0726C73.9681 16.6987 73.9225 16.0062 73.3275 15.6897C72.9335 15.4906 72.5037 15.3716 72.0631 15.3396C71.0677 15.2409 70.0682 15.1702 69.0735 15.0799C67.9665 14.9763 66.8615 14.8418 65.8226 14.4119C65.1532 14.1318 64.5722 13.7404 64.1992 13.1019C63.5523 11.9942 63.5045 9.94196 65.2649 8.86999C65.9575 8.44988 66.714 8.20412 67.5021 8.05358C68.8016 7.81742 70.1268 7.75479 71.4428 7.86733C72.6251 7.96116 73.7679 8.19922 74.8314 8.74536C75.9652 9.32791 76.7884 10.1856 77.1846 11.4172C77.1881 11.4333 77.1945 11.4502 77.1987 11.4691H73.2432C73.1852 11.3632 73.1207 11.261 73.05 11.1631C72.6897 10.6793 72.1797 10.4118 71.6072 10.2717C70.5296 10.0213 69.406 10.0454 68.3402 10.3418C68.1314 10.4007 67.9363 10.4996 67.7656 10.633C67.2535 11.0342 67.3223 11.7162 67.9173 11.9788C68.2643 12.1325 68.6313 12.2367 69.0075 12.2883C69.8504 12.394 70.6933 12.45 71.5363 12.5221C72.7529 12.623 73.9745 12.7203 75.1412 13.1215C75.6053 13.2709 76.0401 13.4987 76.4267 13.7951C77.0757 14.3055 77.4101 14.9854 77.4761 15.7934C77.5422 16.6287 77.3729 17.408 76.8397 18.0795Z" fill="#1F1C23"/>
<path d="M43.1172 7.27943V19.8105H46.7839V6.0079L43.1172 7.27943Z" fill="#1F1C23"/>
<path d="M20.0707 14.1689C19.5191 14.2738 18.9354 14.3648 18.3348 14.438L18.085 14.4683L18.0934 14.2193V14.2158C18.0997 14.0405 18.1067 13.8598 18.1109 13.6811C18.127 12.9842 18.1241 12.2831 18.1025 11.5966L18.0948 11.3496L18.3439 11.3799C18.9669 11.4551 19.5716 11.5448 20.14 11.6483L20.9988 11.8029C20.8611 10.9262 20.5521 10.0843 20.0889 9.32372C19.6773 9.25472 19.2378 9.19262 18.7821 9.13535C18.5436 9.10632 18.3217 9.00003 18.1512 8.83318C17.9807 8.66632 17.8712 8.44836 17.84 8.21351C17.7812 7.76088 17.714 7.32135 17.6398 6.90252C16.8633 6.44212 16.0031 6.13555 15.1074 6L15.2873 6.91494C15.3916 7.44555 15.4833 8.01894 15.5596 8.62613L15.5904 8.87246L15.3377 8.86418H15.2516C15.1011 8.85935 14.9457 8.85314 14.7924 8.85038C14.4859 8.84348 14.1765 8.84003 13.8699 8.84003C13.4737 8.84003 13.0734 8.84555 12.68 8.85728L12.4294 8.86487L12.4595 8.61647C12.5365 7.99547 12.6275 7.39932 12.7311 6.84525L12.8865 6C11.9972 6.13576 11.1431 6.44039 10.3716 6.897C10.3016 7.311 10.2379 7.74087 10.1812 8.18453C10.1519 8.41984 10.0441 8.63889 9.87489 8.80734C9.70566 8.97579 9.48451 9.08412 9.24611 9.11534C8.78695 9.17399 8.34109 9.24299 7.91832 9.31199C7.4502 10.077 7.13825 10.9248 7 11.8077L7.92812 11.6304C8.46497 11.5283 9.04803 11.4379 9.66397 11.3613L9.91385 11.3309L9.90545 11.5793C9.89915 11.7573 9.89215 11.9395 9.88795 12.1189C9.87255 12.8013 9.87465 13.503 9.89635 14.2027L9.90335 14.4497L9.65487 14.418C9.03543 14.3435 8.43138 14.2538 7.85813 14.1503L7 13.9971C7.13771 14.8737 7.44674 15.7157 7.90992 16.4762C8.33969 16.5452 8.77855 16.6101 9.21601 16.6639C9.45464 16.6929 9.6768 16.799 9.84776 16.9657C10.0187 17.1324 10.1289 17.3502 10.1609 17.5851C10.2204 18.0453 10.2876 18.4821 10.3611 18.8961C11.137 19.357 11.9968 19.6641 12.8921 19.8L12.7122 18.885C12.6058 18.3413 12.5134 17.7652 12.4392 17.1731L12.4084 16.9254L12.6618 16.9351C12.8102 16.9406 13.0062 16.9489 13.2071 16.953C13.5052 16.9599 13.8083 16.9627 14.1093 16.9627C14.509 16.9627 14.917 16.9572 15.3216 16.9448L15.5729 16.9379L15.5414 17.1835C15.463 17.8093 15.372 18.4048 15.2691 18.9533L15.1123 19.8C16.0013 19.6638 16.855 19.3592 17.6265 18.903C17.6965 18.489 17.7616 18.0557 17.8183 17.6141C17.8477 17.379 17.9554 17.1602 18.1245 16.992C18.2936 16.8238 18.5145 16.7157 18.7527 16.6846C19.2077 16.6274 19.6542 16.5611 20.0826 16.4873C20.55 15.7222 20.8612 14.8744 20.9988 13.9916L20.0707 14.1689ZM15.7975 13.6266V13.6369C15.7914 13.9131 15.6765 14.1761 15.4771 14.3703C15.2778 14.5645 15.0097 14.6746 14.7294 14.6774C14.5356 14.6774 14.3368 14.6829 14.138 14.6829C13.8531 14.6829 13.5584 14.6829 13.2624 14.6726H13.2512C12.971 14.6662 12.7044 14.5527 12.5076 14.3561C12.3108 14.1595 12.1992 13.8952 12.1964 13.619C12.188 13.136 12.1894 12.653 12.2013 12.17V12.1589C12.2085 11.8833 12.3239 11.6211 12.5233 11.4277C12.7226 11.2343 12.9904 11.1246 13.2701 11.1219C13.4667 11.1219 13.6648 11.117 13.8594 11.117C14.1534 11.117 14.4481 11.117 14.7364 11.1274H14.7476C15.0278 11.1336 15.2945 11.247 15.4914 11.4434C15.6883 11.6399 15.8001 11.9041 15.8031 12.1803C15.8108 12.6681 15.8094 13.1546 15.7975 13.6266Z" fill="#FE5B00"/>
</svg>
