<svg width="488" height="267" viewBox="0 0 488 267" fill="none" xmlns="http://www.w3.org/2000/svg">
<g clip-path="url(#clip0_539_168)">
<path d="M-190.545 204.582L-106.407 144.24L-32.5344 163.507L40.1657 144.24L114.038 151.779L187.52 116.596L260.611 136.701L334.539 66.1239L406.011 107.381L479.884 98.1665L553.366 66.334L626.457 92.3026L699.157 122.46" stroke="#F43685" stroke-width="0.986045" stroke-linejoin="round"/>
<path d="M698.766 187.381L626.066 179.945L552.584 140.47L478.711 158.062L406.011 123.717L334.093 132.512L260.611 110.583L187.52 129.162L114.429 97.7479L40.1655 136.282L-32.5346 109.057L-105.235 101.518L-204.311 199.484" stroke="white" stroke-width="0.986045" stroke-linejoin="round"/>
<path d="M699.157 151.36L626.066 112.408L553.757 128.743L479.884 114.502L406.402 142.146L332.529 156.773L260.22 171.046L187.129 149.685L114.038 179.944L41.3384 161.413L-32.5343 184.449L-106.016 161.413L-178.818 201.013" stroke="#79FF6E" stroke-width="0.986045" stroke-linejoin="round"/>
<path d="M699.547 167.276L626.066 188.219L553.366 178.043L479.884 175.235L406.402 152.617L333.311 197.287L260.22 157.224L186.738 179.004L114.038 157.224L40.1657 194.083L-32.1436 141.727L-105.625 201.203L-179.107 203.297" stroke="#FE5B00" stroke-width="0.986045" stroke-linejoin="round"/>
<path d="M699.157 235.549L626.848 156.386L553.366 235.549L480.275 204.973L406.402 237.959L332.92 235.549L262.175 243.507L187.129 232.198L114.039 258.167L40.5567 240.575L-32.5342 251.465L-106.016 233.454L-179.107 254.658" stroke="#328FFF" stroke-width="0.986045" stroke-linejoin="round"/>
<path d="M215.311 183.37C215.311 175.808 221.441 169.678 229.003 169.678H317.508C326.769 169.678 334.277 177.185 334.277 186.447V197.062H229.003C221.441 197.062 215.311 190.932 215.311 183.37V183.37Z" fill="#FE5B00"/>
<g clip-path="url(#clip1_539_168)">
<path d="M230.102 191.873C234.798 191.873 238.605 188.066 238.605 183.37C238.605 178.674 234.798 174.867 230.102 174.867C225.406 174.867 221.599 178.674 221.599 183.37C221.599 188.066 225.406 191.873 230.102 191.873Z" fill="#F0F0F0"/>
<path d="M224.09 189.382C220.769 186.062 220.769 180.678 224.09 177.358C224.089 177.358 228.993 183.37 228.993 183.37L224.09 189.382Z" fill="black"/>
<path d="M228.993 183.37L222.727 179.136C222.532 179.473 222.361 179.826 222.214 180.191L225.386 183.37L222.214 186.549C222.361 186.914 222.532 187.266 222.726 187.604L228.993 183.37Z" fill="#FFDA44"/>
<path d="M238.533 182.261H228.993L224.089 177.358C223.561 177.886 223.102 178.484 222.727 179.136L226.953 183.37L222.727 187.604C223.102 188.256 223.561 188.854 224.089 189.382L228.993 184.479H238.533C238.58 184.116 238.605 183.746 238.605 183.37C238.605 182.994 238.58 182.624 238.533 182.261V182.261Z" fill="#6DA544"/>
<path d="M224.925 190.115C226.359 191.217 228.154 191.873 230.102 191.873C234.031 191.873 237.336 189.208 238.312 185.588H229.452L224.925 190.115Z" fill="#0052B4"/>
<path d="M238.312 181.152C237.336 177.532 234.031 174.867 230.102 174.867C228.154 174.867 226.359 175.523 224.925 176.625L229.452 181.152H238.312Z" fill="#D80027"/>
</g>
<path d="M247.546 189.046C246.803 189.046 246.153 188.904 245.595 188.62C245.037 188.337 244.602 187.945 244.289 187.447C243.986 186.938 243.82 186.361 243.79 185.715H245.492C245.541 186.263 245.742 186.698 246.094 187.021C246.456 187.344 246.945 187.505 247.561 187.505C248.148 187.505 248.598 187.378 248.911 187.124C249.234 186.869 249.395 186.547 249.395 186.155C249.395 185.842 249.297 185.583 249.102 185.378C248.916 185.163 248.676 184.991 248.383 184.864C248.089 184.737 247.688 184.585 247.18 184.409C246.514 184.184 245.972 183.969 245.551 183.764C245.13 183.549 244.768 183.245 244.465 182.854C244.172 182.453 244.025 181.935 244.025 181.299C244.025 180.751 244.162 180.262 244.436 179.831C244.71 179.391 245.101 179.049 245.61 178.804C246.128 178.55 246.735 178.423 247.429 178.423C248.114 178.423 248.715 178.565 249.234 178.848C249.762 179.132 250.173 179.523 250.466 180.022C250.76 180.511 250.921 181.059 250.951 181.666H249.248C249.219 181.157 249.043 180.746 248.72 180.433C248.397 180.12 247.967 179.963 247.429 179.963C246.891 179.963 246.47 180.091 246.167 180.345C245.874 180.599 245.727 180.927 245.727 181.328C245.727 181.631 245.82 181.886 246.006 182.091C246.201 182.287 246.441 182.448 246.725 182.575C247.018 182.702 247.414 182.844 247.913 183.001C248.598 183.226 249.146 183.441 249.557 183.646C249.977 183.842 250.339 184.14 250.642 184.541C250.946 184.942 251.097 185.466 251.097 186.111C251.097 186.679 250.955 187.183 250.672 187.623C250.398 188.063 249.992 188.41 249.454 188.664C248.926 188.919 248.29 189.046 247.546 189.046ZM255.898 189.046C255.233 189.046 254.617 188.875 254.049 188.532C253.492 188.18 253.047 187.706 252.714 187.109C252.382 186.512 252.215 185.862 252.215 185.158C252.215 184.444 252.382 183.793 252.714 183.206C253.047 182.609 253.492 182.14 254.049 181.798C254.617 181.445 255.233 181.269 255.898 181.269C256.563 181.269 257.175 181.445 257.732 181.798C258.3 182.14 258.75 182.609 259.082 183.206C259.415 183.793 259.581 184.444 259.581 185.158C259.581 185.862 259.415 186.512 259.082 187.109C258.75 187.706 258.3 188.18 257.732 188.532C257.175 188.875 256.563 189.046 255.898 189.046ZM255.898 187.549C256.28 187.549 256.627 187.447 256.94 187.241C257.263 187.036 257.517 186.752 257.703 186.39C257.889 186.028 257.982 185.617 257.982 185.158C257.982 184.698 257.889 184.287 257.703 183.925C257.517 183.563 257.263 183.28 256.94 183.074C256.627 182.869 256.28 182.766 255.898 182.766C255.517 182.766 255.164 182.869 254.842 183.074C254.529 183.28 254.279 183.563 254.093 183.925C253.907 184.287 253.815 184.698 253.815 185.158C253.815 185.617 253.907 186.028 254.093 186.39C254.279 186.752 254.529 187.036 254.842 187.241C255.164 187.447 255.517 187.549 255.898 187.549ZM263.943 189.046C263.366 189.046 262.852 188.914 262.402 188.65C261.952 188.376 261.6 187.994 261.346 187.505C261.091 187.016 260.964 186.449 260.964 185.803V181.445H262.578V185.686C262.578 186.234 262.735 186.684 263.048 187.036C263.37 187.378 263.776 187.549 264.265 187.549C264.774 187.549 265.19 187.378 265.513 187.036C265.835 186.684 265.997 186.234 265.997 185.686V181.445H267.596V188.87H266.393L266.1 188.034H266.026C265.86 188.268 265.591 188.498 265.219 188.723C264.848 188.938 264.422 189.046 263.943 189.046ZM272.309 189.046C271.615 189.046 271.052 188.816 270.622 188.356C270.191 187.897 269.976 187.266 269.976 186.464V182.898H268.758V181.533H269.286C269.58 181.533 269.8 181.46 269.947 181.313C270.103 181.157 270.181 180.937 270.181 180.653V179.538H271.575V181.445H273.189V182.898H271.575V186.331C271.575 186.733 271.673 187.036 271.869 187.241C272.064 187.437 272.333 187.535 272.676 187.535C272.881 187.535 273.052 187.5 273.189 187.432V188.899C272.935 188.997 272.642 189.046 272.309 189.046ZM274.709 188.87V178.599H276.323V182.267H276.396C276.553 182.042 276.817 181.822 277.189 181.607C277.56 181.382 277.986 181.269 278.465 181.269C279.013 181.269 279.502 181.406 279.932 181.68C280.373 181.944 280.715 182.321 280.96 182.81C281.214 183.299 281.341 183.866 281.341 184.512V188.87H279.742V184.629C279.742 184.082 279.58 183.637 279.258 183.294C278.944 182.942 278.539 182.766 278.04 182.766C277.531 182.766 277.115 182.942 276.792 183.294C276.479 183.637 276.323 184.082 276.323 184.629V188.87H274.709ZM294.864 188.87H293.074L292.237 186.566H288.085L287.249 188.87H285.517L289.376 178.599H291.019L294.864 188.87ZM291.68 184.996L290.168 180.785L288.642 184.996H291.68ZM298.681 179.934C298.329 179.934 298.055 180.037 297.859 180.242C297.663 180.438 297.566 180.736 297.566 181.137V181.445H299.224V182.898H297.61V188.87H296.01V182.898H294.998V181.445H296.01V180.991C296.01 180.198 296.225 179.572 296.656 179.112C297.096 178.653 297.659 178.423 298.343 178.423C298.676 178.423 298.969 178.472 299.224 178.57V180.022C299.077 179.963 298.896 179.934 298.681 179.934ZM300.213 188.87V181.445H301.416L301.709 182.267H301.783C301.939 182.042 302.179 181.822 302.502 181.607C302.824 181.382 303.196 181.269 303.617 181.269C303.861 181.269 304.067 181.289 304.233 181.328V182.942C304.047 182.903 303.827 182.883 303.573 182.883C303.054 182.883 302.634 183.05 302.311 183.382C301.988 183.715 301.827 184.175 301.827 184.761V188.87H300.213ZM306.942 188.87H305.328V181.445H306.942V188.87ZM306.135 180.404C305.871 180.404 305.646 180.316 305.46 180.14C305.274 179.954 305.181 179.729 305.181 179.465C305.181 179.191 305.274 178.966 305.46 178.79C305.646 178.604 305.871 178.511 306.135 178.511C306.399 178.511 306.619 178.604 306.795 178.79C306.981 178.966 307.074 179.191 307.074 179.465C307.074 179.729 306.981 179.954 306.795 180.14C306.619 180.316 306.399 180.404 306.135 180.404ZM312.067 189.046C311.402 189.046 310.786 188.875 310.219 188.532C309.661 188.18 309.216 187.706 308.883 187.109C308.551 186.512 308.384 185.862 308.384 185.158C308.384 184.444 308.551 183.793 308.883 183.206C309.216 182.609 309.661 182.14 310.219 181.798C310.786 181.445 311.402 181.269 312.067 181.269C312.654 181.269 313.192 181.406 313.681 181.68C314.17 181.954 314.571 182.316 314.884 182.766C315.198 183.206 315.403 183.676 315.501 184.175H313.887C313.779 183.813 313.569 183.49 313.256 183.206C312.943 182.913 312.547 182.766 312.067 182.766C311.686 182.766 311.334 182.869 311.011 183.074C310.698 183.28 310.448 183.563 310.263 183.925C310.077 184.287 309.984 184.698 309.984 185.158C309.984 185.617 310.077 186.028 310.263 186.39C310.448 186.752 310.698 187.036 311.011 187.241C311.334 187.447 311.686 187.549 312.067 187.549C312.547 187.549 312.943 187.407 313.256 187.124C313.569 186.83 313.779 186.503 313.887 186.141H315.501C315.403 186.64 315.198 187.114 314.884 187.564C314.571 188.004 314.17 188.361 313.681 188.635C313.192 188.909 312.654 189.046 312.067 189.046ZM319.507 181.269C320.407 181.269 321.126 181.548 321.664 182.106C322.202 182.654 322.471 183.382 322.471 184.292V188.87H321.268L320.975 188.034H320.901C320.696 188.298 320.412 188.532 320.05 188.738C319.698 188.943 319.258 189.046 318.73 189.046C318.26 189.046 317.835 188.948 317.453 188.752C317.072 188.547 316.773 188.278 316.558 187.945C316.343 187.603 316.235 187.231 316.235 186.83C316.235 186.341 316.377 185.916 316.661 185.554C316.954 185.182 317.36 184.898 317.879 184.703C318.407 184.507 319.008 184.409 319.683 184.409H320.872V184.16C320.872 183.72 320.745 183.372 320.49 183.118C320.246 182.854 319.913 182.722 319.493 182.722C319.121 182.722 318.823 182.82 318.598 183.015C318.373 183.201 318.236 183.431 318.187 183.705H316.573C316.622 183.275 316.764 182.874 316.998 182.502C317.243 182.13 317.58 181.832 318.011 181.607C318.441 181.382 318.94 181.269 319.507 181.269ZM319.067 187.681C319.605 187.681 320.04 187.52 320.373 187.197C320.706 186.874 320.872 186.488 320.872 186.038V185.568H319.698C319.082 185.568 318.617 185.671 318.304 185.877C318.001 186.072 317.849 186.346 317.849 186.698C317.849 186.992 317.952 187.231 318.157 187.417C318.373 187.593 318.676 187.681 319.067 187.681Z" fill="white"/>
<path d="M71.5259 136.186C71.5259 128.624 77.6561 122.494 85.2181 122.494H170.724C179.985 122.494 187.492 130.001 187.492 139.263V149.878H85.2181C77.6561 149.878 71.5259 143.748 71.5259 136.186V136.186Z" fill="#EFEDEC"/>
<g clip-path="url(#clip2_539_168)">
<path d="M86.3172 144.689C91.0131 144.689 94.8199 140.882 94.8199 136.186C94.8199 131.49 91.0131 127.683 86.3172 127.683C81.6212 127.683 77.8145 131.49 77.8145 136.186C77.8145 140.882 81.6212 144.689 86.3172 144.689Z" fill="#496E2D"/>
<path d="M84.4688 139.883C86.5105 139.883 88.1656 138.228 88.1656 136.186C88.1656 134.144 86.5105 132.489 84.4688 132.489C82.4271 132.489 80.772 134.144 80.772 136.186C80.772 138.228 82.4271 139.883 84.4688 139.883Z" fill="#D80027"/>
</g>
<path d="M106.393 136.213C106.843 136.36 107.254 136.649 107.626 137.079C107.997 137.5 108.183 138.052 108.183 138.737C108.183 139.285 108.041 139.784 107.758 140.234C107.484 140.684 107.092 141.041 106.584 141.305C106.085 141.559 105.513 141.686 104.867 141.686H100.597V131.415H104.691C105.288 131.415 105.821 131.537 106.29 131.782C106.76 132.017 107.122 132.344 107.376 132.765C107.64 133.176 107.772 133.631 107.772 134.13C107.772 134.677 107.635 135.127 107.361 135.48C107.088 135.832 106.765 136.076 106.393 136.213ZM102.299 132.897V135.597H104.544C104.994 135.597 105.361 135.47 105.645 135.215C105.928 134.961 106.07 134.633 106.07 134.232C106.07 133.841 105.928 133.523 105.645 133.279C105.361 133.024 104.994 132.897 104.544 132.897H102.299ZM104.72 140.204C105.239 140.204 105.659 140.057 105.982 139.764C106.315 139.461 106.481 139.074 106.481 138.605C106.481 138.145 106.315 137.769 105.982 137.475C105.659 137.172 105.239 137.02 104.72 137.02H102.299V140.204H104.72ZM112.437 134.086C113.336 134.086 114.055 134.364 114.593 134.922C115.131 135.47 115.4 136.199 115.4 137.108V141.686H114.197L113.904 140.85H113.83C113.625 141.114 113.341 141.349 112.979 141.554C112.627 141.76 112.187 141.862 111.659 141.862C111.189 141.862 110.764 141.764 110.382 141.569C110.001 141.363 109.703 141.094 109.487 140.762C109.272 140.419 109.164 140.048 109.164 139.647C109.164 139.158 109.306 138.732 109.59 138.37C109.883 137.998 110.289 137.715 110.808 137.519C111.336 137.323 111.938 137.226 112.613 137.226H113.801V136.976C113.801 136.536 113.674 136.189 113.42 135.934C113.175 135.67 112.842 135.538 112.422 135.538C112.05 135.538 111.752 135.636 111.527 135.832C111.302 136.018 111.165 136.247 111.116 136.521H109.502C109.551 136.091 109.693 135.69 109.927 135.318C110.172 134.946 110.51 134.648 110.94 134.423C111.37 134.198 111.869 134.086 112.437 134.086ZM111.996 140.498C112.534 140.498 112.97 140.336 113.302 140.013C113.635 139.691 113.801 139.304 113.801 138.854V138.385H112.627C112.011 138.385 111.546 138.487 111.233 138.693C110.93 138.889 110.779 139.162 110.779 139.515C110.779 139.808 110.881 140.048 111.087 140.234C111.302 140.41 111.605 140.498 111.996 140.498ZM117.2 141.686V134.262H118.403L118.697 135.083H118.77C118.936 134.858 119.2 134.638 119.562 134.423C119.934 134.198 120.364 134.086 120.854 134.086C121.431 134.086 121.944 134.223 122.394 134.496C122.844 134.761 123.196 135.137 123.451 135.626C123.705 136.115 123.832 136.683 123.832 137.328V141.686H122.233V137.446C122.233 136.898 122.071 136.453 121.749 136.111C121.436 135.758 121.03 135.582 120.531 135.582C120.022 135.582 119.606 135.758 119.284 136.111C118.971 136.453 118.814 136.898 118.814 137.446V141.686H117.2ZM128.868 144.474C128.193 144.474 127.616 144.347 127.136 144.092C126.657 143.848 126.285 143.545 126.021 143.183C125.767 142.831 125.601 142.483 125.522 142.141H127.166C127.273 142.395 127.469 142.606 127.753 142.772C128.046 142.938 128.408 143.021 128.838 143.021C129.396 143.021 129.841 142.865 130.174 142.552C130.506 142.239 130.672 141.808 130.672 141.261V140.454H130.599C130.452 140.659 130.198 140.874 129.836 141.099C129.474 141.314 129.054 141.422 128.574 141.422C127.978 141.422 127.42 141.261 126.902 140.938C126.383 140.615 125.972 140.175 125.669 139.617C125.366 139.05 125.214 138.429 125.214 137.754C125.214 137.079 125.366 136.463 125.669 135.905C125.972 135.338 126.383 134.893 126.902 134.57C127.42 134.247 127.978 134.086 128.574 134.086C129.083 134.086 129.523 134.198 129.895 134.423C130.276 134.648 130.545 134.868 130.702 135.083H130.775L131.083 134.262H132.287V141.246C132.287 142.234 131.978 143.016 131.362 143.594C130.746 144.181 129.914 144.474 128.868 144.474ZM128.75 139.969C129.093 139.969 129.411 139.877 129.704 139.691C129.998 139.495 130.232 139.226 130.408 138.884C130.584 138.541 130.672 138.165 130.672 137.754C130.672 137.333 130.584 136.957 130.408 136.624C130.232 136.282 129.998 136.018 129.704 135.832C129.411 135.636 129.093 135.538 128.75 135.538C128.398 135.538 128.075 135.636 127.782 135.832C127.489 136.018 127.254 136.282 127.078 136.624C126.902 136.957 126.814 137.333 126.814 137.754C126.814 138.174 126.902 138.556 127.078 138.898C127.254 139.231 127.489 139.495 127.782 139.691C128.075 139.877 128.398 139.969 128.75 139.969ZM135.838 141.686H134.224V131.415H135.838V141.686ZM140.564 134.086C141.464 134.086 142.183 134.364 142.721 134.922C143.259 135.47 143.528 136.199 143.528 137.108V141.686H142.325L142.031 140.85H141.958C141.753 141.114 141.469 141.349 141.107 141.554C140.755 141.76 140.315 141.862 139.786 141.862C139.317 141.862 138.891 141.764 138.51 141.569C138.128 141.363 137.83 141.094 137.615 140.762C137.4 140.419 137.292 140.048 137.292 139.647C137.292 139.158 137.434 138.732 137.718 138.37C138.011 137.998 138.417 137.715 138.935 137.519C139.464 137.323 140.065 137.226 140.74 137.226H141.929V136.976C141.929 136.536 141.802 136.189 141.547 135.934C141.303 135.67 140.97 135.538 140.549 135.538C140.178 135.538 139.879 135.636 139.654 135.832C139.429 136.018 139.292 136.247 139.244 136.521H137.63C137.678 136.091 137.82 135.69 138.055 135.318C138.3 134.946 138.637 134.648 139.068 134.423C139.498 134.198 139.997 134.086 140.564 134.086ZM140.124 140.498C140.662 140.498 141.097 140.336 141.43 140.013C141.762 139.691 141.929 139.304 141.929 138.854V138.385H140.755C140.139 138.385 139.674 138.487 139.361 138.693C139.058 138.889 138.906 139.162 138.906 139.515C138.906 139.808 139.009 140.048 139.214 140.234C139.429 140.41 139.733 140.498 140.124 140.498ZM148.321 141.862C147.714 141.862 147.147 141.696 146.619 141.363C146.1 141.021 145.685 140.556 145.372 139.969C145.059 139.373 144.902 138.708 144.902 137.974C144.902 137.24 145.059 136.58 145.372 135.993C145.685 135.396 146.1 134.932 146.619 134.599C147.147 134.257 147.714 134.086 148.321 134.086C148.663 134.086 148.981 134.144 149.275 134.262C149.578 134.369 149.827 134.501 150.023 134.658C150.219 134.805 150.351 134.932 150.419 135.039H150.492V131.415H152.106V141.686H150.903L150.61 140.85H150.536C150.38 141.065 150.101 141.29 149.7 141.525C149.299 141.75 148.839 141.862 148.321 141.862ZM148.497 140.366C148.859 140.366 149.191 140.268 149.495 140.072C149.798 139.867 150.038 139.583 150.214 139.221C150.4 138.849 150.492 138.434 150.492 137.974C150.492 137.514 150.4 137.103 150.214 136.741C150.038 136.37 149.798 136.086 149.495 135.89C149.191 135.685 148.859 135.582 148.497 135.582C148.135 135.582 147.802 135.685 147.499 135.89C147.196 136.086 146.951 136.37 146.766 136.741C146.589 137.103 146.501 137.514 146.501 137.974C146.501 138.434 146.589 138.849 146.766 139.221C146.951 139.583 147.196 139.867 147.499 140.072C147.802 140.268 148.135 140.366 148.497 140.366ZM160.833 137.813C160.833 138.126 160.803 138.39 160.745 138.605H155.242C155.34 139.162 155.575 139.603 155.947 139.925C156.318 140.248 156.768 140.41 157.297 140.41C157.678 140.41 158.001 140.336 158.265 140.19C158.529 140.043 158.739 139.857 158.896 139.632H160.569C160.422 140.004 160.192 140.361 159.879 140.703C159.576 141.045 159.199 141.324 158.749 141.539C158.309 141.755 157.83 141.862 157.311 141.862C156.636 141.862 156.015 141.691 155.448 141.349C154.89 141.006 154.445 140.542 154.113 139.955C153.79 139.358 153.628 138.698 153.628 137.974C153.628 137.26 153.795 136.609 154.127 136.022C154.46 135.426 154.905 134.956 155.462 134.614C156.03 134.262 156.641 134.086 157.297 134.086C157.952 134.086 158.549 134.252 159.087 134.585C159.625 134.907 160.05 135.352 160.363 135.92C160.676 136.487 160.833 137.118 160.833 137.813ZM157.297 135.538C156.788 135.538 156.343 135.709 155.961 136.052C155.58 136.384 155.34 136.829 155.242 137.387H159.263C159.175 136.839 158.95 136.394 158.588 136.052C158.226 135.709 157.795 135.538 157.297 135.538ZM164.729 141.862C164.162 141.862 163.658 141.755 163.218 141.539C162.788 141.314 162.445 141.016 162.191 140.644C161.946 140.273 161.809 139.867 161.78 139.427H163.365C163.394 139.759 163.531 140.028 163.776 140.234C164.02 140.429 164.338 140.527 164.729 140.527C165.111 140.527 165.404 140.444 165.61 140.278C165.825 140.111 165.933 139.901 165.933 139.647C165.933 139.353 165.805 139.133 165.551 138.986C165.297 138.83 164.896 138.668 164.348 138.502C163.849 138.346 163.438 138.189 163.115 138.033C162.802 137.876 162.533 137.656 162.308 137.372C162.083 137.089 161.971 136.722 161.971 136.272C161.971 135.861 162.079 135.489 162.294 135.157C162.509 134.824 162.817 134.565 163.218 134.379C163.629 134.183 164.108 134.086 164.656 134.086C165.184 134.086 165.654 134.193 166.065 134.408C166.485 134.614 166.813 134.898 167.048 135.259C167.282 135.612 167.415 136.008 167.444 136.448H165.859C165.82 136.125 165.698 135.876 165.492 135.7C165.297 135.514 165.018 135.421 164.656 135.421C164.314 135.421 164.05 135.499 163.864 135.656C163.678 135.802 163.585 135.988 163.585 136.213C163.585 136.487 163.707 136.697 163.952 136.844C164.196 136.981 164.583 137.128 165.111 137.284C165.62 137.441 166.035 137.597 166.358 137.754C166.681 137.91 166.96 138.135 167.194 138.429C167.429 138.722 167.547 139.104 167.547 139.573C167.547 140.238 167.297 140.786 166.798 141.217C166.299 141.647 165.61 141.862 164.729 141.862ZM169.058 141.686V131.415H170.672V135.083H170.745C170.902 134.858 171.166 134.638 171.538 134.423C171.909 134.198 172.335 134.086 172.814 134.086C173.362 134.086 173.851 134.223 174.281 134.496C174.722 134.761 175.064 135.137 175.309 135.626C175.563 136.115 175.69 136.683 175.69 137.328V141.686H174.091V137.446C174.091 136.898 173.929 136.453 173.607 136.111C173.294 135.758 172.888 135.582 172.389 135.582C171.88 135.582 171.464 135.758 171.142 136.111C170.828 136.453 170.672 136.898 170.672 137.446V141.686H169.058Z" fill="#1F1C23"/>
<path d="M104.157 217.764C104.157 210.202 110.287 204.072 117.849 204.072H170.259C179.52 204.072 187.028 211.58 187.028 220.841V231.457H117.849C110.287 231.457 104.157 225.326 104.157 217.764V217.764Z" fill="#EFEDEC"/>
<g clip-path="url(#clip3_539_168)">
<path d="M118.949 226.267C123.644 226.267 127.451 222.46 127.451 217.764C127.451 213.068 123.644 209.262 118.949 209.262C114.253 209.262 110.446 213.068 110.446 217.764C110.446 222.46 114.253 226.267 118.949 226.267Z" fill="#F0F0F0"/>
<path d="M110.446 217.764C110.446 221.42 112.753 224.537 115.991 225.738V209.79C112.753 210.992 110.446 214.108 110.446 217.764V217.764Z" fill="#6DA544"/>
<path d="M127.451 217.764C127.451 214.108 125.144 210.992 121.906 209.79V225.738C125.144 224.537 127.451 221.42 127.451 217.764V217.764Z" fill="#6DA544"/>
</g>
<path d="M139.381 220.315V212.993H141.039V223.264H139.469L134.554 215.943V223.264H132.896V212.993H134.466L139.381 220.315ZM144.722 223.264H143.108V215.84H144.722V223.264ZM143.915 214.798C143.651 214.798 143.426 214.71 143.24 214.534C143.054 214.348 142.961 214.123 142.961 213.859C142.961 213.585 143.054 213.36 143.24 213.184C143.426 212.998 143.651 212.905 143.915 212.905C144.179 212.905 144.399 212.998 144.575 213.184C144.761 213.36 144.854 213.585 144.854 213.859C144.854 214.123 144.761 214.348 144.575 214.534C144.399 214.71 144.179 214.798 143.915 214.798ZM149.818 226.052C149.143 226.052 148.566 225.925 148.086 225.671C147.607 225.426 147.235 225.123 146.971 224.761C146.717 224.409 146.551 224.062 146.472 223.719H148.116C148.223 223.974 148.419 224.184 148.703 224.35C148.996 224.516 149.358 224.6 149.788 224.6C150.346 224.6 150.791 224.443 151.124 224.13C151.456 223.817 151.622 223.387 151.622 222.839V222.032H151.549C151.402 222.237 151.148 222.452 150.786 222.677C150.424 222.893 150.004 223 149.524 223C148.928 223 148.37 222.839 147.852 222.516C147.333 222.193 146.922 221.753 146.619 221.195C146.316 220.628 146.164 220.007 146.164 219.332C146.164 218.657 146.316 218.041 146.619 217.483C146.922 216.916 147.333 216.471 147.852 216.148C148.37 215.825 148.928 215.664 149.524 215.664C150.033 215.664 150.473 215.776 150.845 216.001C151.226 216.226 151.495 216.446 151.652 216.662H151.725L152.033 215.84H153.236V222.824C153.236 223.812 152.928 224.595 152.312 225.172C151.696 225.759 150.864 226.052 149.818 226.052ZM149.7 221.548C150.043 221.548 150.361 221.455 150.654 221.269C150.948 221.073 151.182 220.804 151.358 220.462C151.534 220.119 151.622 219.743 151.622 219.332C151.622 218.911 151.534 218.535 151.358 218.202C151.182 217.86 150.948 217.596 150.654 217.41C150.361 217.214 150.043 217.116 149.7 217.116C149.348 217.116 149.025 217.214 148.732 217.41C148.438 217.596 148.204 217.86 148.028 218.202C147.852 218.535 147.764 218.911 147.764 219.332C147.764 219.753 147.852 220.134 148.028 220.477C148.204 220.809 148.438 221.073 148.732 221.269C149.025 221.455 149.348 221.548 149.7 221.548ZM161.88 219.391C161.88 219.704 161.851 219.968 161.792 220.183H156.29C156.387 220.741 156.622 221.181 156.994 221.504C157.366 221.826 157.816 221.988 158.344 221.988C158.725 221.988 159.048 221.914 159.312 221.768C159.576 221.621 159.787 221.435 159.943 221.21H161.616C161.469 221.582 161.239 221.939 160.926 222.281C160.623 222.624 160.246 222.902 159.796 223.118C159.356 223.333 158.877 223.44 158.358 223.44C157.683 223.44 157.062 223.269 156.495 222.927C155.937 222.585 155.492 222.12 155.16 221.533C154.837 220.936 154.676 220.276 154.676 219.552C154.676 218.838 154.842 218.188 155.174 217.601C155.507 217.004 155.952 216.534 156.51 216.192C157.077 215.84 157.688 215.664 158.344 215.664C158.999 215.664 159.596 215.83 160.134 216.163C160.672 216.486 161.097 216.931 161.41 217.498C161.723 218.065 161.88 218.696 161.88 219.391ZM158.344 217.116C157.835 217.116 157.39 217.288 157.009 217.63C156.627 217.963 156.387 218.408 156.29 218.965H160.31C160.222 218.417 159.997 217.972 159.635 217.63C159.273 217.288 158.843 217.116 158.344 217.116ZM163.312 223.264V215.84H164.515L164.808 216.662H164.882C165.038 216.437 165.278 216.217 165.6 216.001C165.923 215.776 166.295 215.664 166.716 215.664C166.96 215.664 167.166 215.683 167.332 215.723V217.337C167.146 217.297 166.926 217.278 166.672 217.278C166.153 217.278 165.733 217.444 165.41 217.777C165.087 218.109 164.926 218.569 164.926 219.156V223.264H163.312ZM170.041 223.264H168.427V215.84H170.041V223.264ZM169.234 214.798C168.97 214.798 168.745 214.71 168.559 214.534C168.373 214.348 168.28 214.123 168.28 213.859C168.28 213.585 168.373 213.36 168.559 213.184C168.745 212.998 168.97 212.905 169.234 212.905C169.498 212.905 169.718 212.998 169.894 213.184C170.08 213.36 170.173 213.585 170.173 213.859C170.173 214.123 170.08 214.348 169.894 214.534C169.718 214.71 169.498 214.798 169.234 214.798ZM174.697 215.664C175.597 215.664 176.316 215.943 176.854 216.5C177.392 217.048 177.661 217.777 177.661 218.686V223.264H176.457L176.164 222.428H176.091C175.885 222.692 175.602 222.927 175.24 223.132C174.887 223.338 174.447 223.44 173.919 223.44C173.45 223.44 173.024 223.343 172.642 223.147C172.261 222.942 171.963 222.673 171.747 222.34C171.532 221.998 171.425 221.626 171.425 221.225C171.425 220.736 171.566 220.31 171.85 219.948C172.144 219.577 172.55 219.293 173.068 219.097C173.596 218.902 174.198 218.804 174.873 218.804H176.061V218.554C176.061 218.114 175.934 217.767 175.68 217.513C175.435 217.249 175.103 217.116 174.682 217.116C174.31 217.116 174.012 217.214 173.787 217.41C173.562 217.596 173.425 217.826 173.376 218.1H171.762C171.811 217.669 171.953 217.268 172.188 216.896C172.432 216.525 172.77 216.226 173.2 216.001C173.63 215.776 174.129 215.664 174.697 215.664ZM174.257 222.076C174.795 222.076 175.23 221.914 175.562 221.592C175.895 221.269 176.061 220.882 176.061 220.432V219.963H174.887C174.271 219.963 173.807 220.066 173.494 220.271C173.19 220.467 173.039 220.741 173.039 221.093C173.039 221.386 173.141 221.626 173.347 221.812C173.562 221.988 173.865 222.076 174.257 222.076Z" fill="#1F1C23"/>
<path d="M404.78 119.054C404.78 111.492 398.65 105.362 391.088 105.362H350.582C341.321 105.362 333.813 112.87 333.813 122.131V132.746H391.088C398.65 132.746 404.78 126.616 404.78 119.054V119.054Z" fill="#EFEDEC"/>
<g clip-path="url(#clip4_539_168)">
<path d="M389.988 127.557C385.293 127.557 381.486 123.75 381.486 119.054C381.486 114.358 385.293 110.552 389.988 110.552C394.684 110.552 398.491 114.358 398.491 119.054C398.491 123.75 394.684 127.557 389.988 127.557Z" fill="#F0F0F0"/>
<path d="M389.988 110.552C393.359 110.552 396.272 112.513 397.647 115.358H382.329C383.705 112.513 386.617 110.552 389.988 110.552V110.552Z" fill="#FF9811"/>
<path d="M389.988 127.557C386.617 127.557 383.705 125.595 382.329 122.751H397.647C396.272 125.595 393.359 127.557 389.988 127.557Z" fill="#6DA544"/>
<path d="M389.988 122.012C388.355 122.012 387.031 120.688 387.031 119.054C387.031 117.421 388.355 116.097 389.988 116.097C391.622 116.097 392.946 117.421 392.946 119.054C392.946 120.688 391.622 122.012 389.988 122.012Z" fill="#0052B4"/>
<path d="M389.989 120.903C388.968 120.903 388.14 120.075 388.14 119.054C388.14 118.034 388.968 117.206 389.989 117.206C391.009 117.206 391.837 118.034 391.837 119.054C391.837 120.075 391.009 120.903 389.989 120.903Z" fill="#F0F0F0"/>
<path d="M389.989 116.773L389.418 118.067L388.013 117.914L388.848 119.054L388.013 120.195L389.418 120.042L389.989 121.335L390.559 120.042L391.964 120.195L391.129 119.054L391.964 117.914L390.559 118.067L389.989 116.773Z" fill="#0052B4"/>
</g>
<path d="M347.548 124.554H345.846V114.283H347.548V124.554ZM349.61 124.554V117.13H350.813L351.107 117.952H351.18C351.347 117.727 351.611 117.507 351.973 117.291C352.344 117.066 352.775 116.954 353.264 116.954C353.841 116.954 354.354 117.091 354.804 117.365C355.254 117.629 355.607 118.005 355.861 118.495C356.115 118.984 356.242 119.551 356.242 120.197V124.554H354.643V120.314C354.643 119.766 354.482 119.321 354.159 118.979C353.846 118.627 353.44 118.451 352.941 118.451C352.432 118.451 352.017 118.627 351.694 118.979C351.381 119.321 351.224 119.766 351.224 120.314V124.554H349.61ZM361.043 124.73C360.437 124.73 359.869 124.564 359.341 124.232C358.823 123.889 358.407 123.425 358.094 122.838C357.781 122.241 357.624 121.576 357.624 120.842C357.624 120.109 357.781 119.448 358.094 118.861C358.407 118.265 358.823 117.8 359.341 117.467C359.869 117.125 360.437 116.954 361.043 116.954C361.386 116.954 361.704 117.013 361.997 117.13C362.3 117.238 362.55 117.37 362.745 117.526C362.941 117.673 363.073 117.8 363.141 117.908H363.215V114.283H364.829V124.554H363.626L363.332 123.718H363.259C363.102 123.933 362.824 124.158 362.422 124.393C362.021 124.618 361.562 124.73 361.043 124.73ZM361.219 123.234C361.581 123.234 361.914 123.136 362.217 122.94C362.52 122.735 362.76 122.451 362.936 122.089C363.122 121.718 363.215 121.302 363.215 120.842C363.215 120.382 363.122 119.972 362.936 119.61C362.76 119.238 362.52 118.954 362.217 118.759C361.914 118.553 361.581 118.451 361.219 118.451C360.857 118.451 360.525 118.553 360.222 118.759C359.918 118.954 359.674 119.238 359.488 119.61C359.312 119.972 359.224 120.382 359.224 120.842C359.224 121.302 359.312 121.718 359.488 122.089C359.674 122.451 359.918 122.735 360.222 122.94C360.525 123.136 360.857 123.234 361.219 123.234ZM368.39 124.554H366.776V117.13H368.39V124.554ZM367.583 116.088C367.319 116.088 367.094 116 366.908 115.824C366.722 115.638 366.63 115.413 366.63 115.149C366.63 114.875 366.722 114.65 366.908 114.474C367.094 114.288 367.319 114.195 367.583 114.195C367.847 114.195 368.067 114.288 368.244 114.474C368.429 114.65 368.522 114.875 368.522 115.149C368.522 115.413 368.429 115.638 368.244 115.824C368.067 116 367.847 116.088 367.583 116.088ZM373.046 116.954C373.946 116.954 374.665 117.233 375.203 117.79C375.741 118.338 376.01 119.067 376.01 119.977V124.554H374.807L374.513 123.718H374.44C374.235 123.982 373.951 124.217 373.589 124.422C373.237 124.628 372.797 124.73 372.268 124.73C371.799 124.73 371.373 124.633 370.992 124.437C370.61 124.232 370.312 123.963 370.097 123.63C369.882 123.288 369.774 122.916 369.774 122.515C369.774 122.026 369.916 121.6 370.2 121.238C370.493 120.867 370.899 120.583 371.417 120.387C371.946 120.192 372.547 120.094 373.222 120.094H374.411V119.844C374.411 119.404 374.283 119.057 374.029 118.803C373.785 118.539 373.452 118.407 373.031 118.407C372.66 118.407 372.361 118.504 372.136 118.7C371.911 118.886 371.774 119.116 371.725 119.39H370.111C370.16 118.959 370.302 118.558 370.537 118.186C370.782 117.815 371.119 117.516 371.549 117.291C371.98 117.066 372.479 116.954 373.046 116.954ZM372.606 123.366C373.144 123.366 373.579 123.205 373.912 122.882C374.244 122.559 374.411 122.173 374.411 121.723V121.253H373.237C372.621 121.253 372.156 121.356 371.843 121.561C371.54 121.757 371.388 122.031 371.388 122.383C371.388 122.676 371.491 122.916 371.696 123.102C371.911 123.278 372.215 123.366 372.606 123.366Z" fill="#1F1C23"/>
<path d="M260.889 52.2067C260.889 44.6447 267.019 38.5145 274.581 38.5145H318.053C327.315 38.5145 334.822 46.0222 334.822 55.2834V65.8989H274.581C267.019 65.8989 260.889 59.7687 260.889 52.2067V52.2067Z" fill="#EFEDEC"/>
<g clip-path="url(#clip5_539_168)">
<path d="M275.664 60.693C280.35 60.693 284.15 56.8936 284.15 52.2067C284.15 47.5199 280.35 43.7204 275.664 43.7204C270.977 43.7204 267.177 47.5199 267.177 52.2067C267.177 56.8936 270.977 60.693 275.664 60.693Z" fill="#6DA544"/>
<path d="M275.664 47.0412L282.674 52.2067L275.664 57.3723L268.653 52.2067L275.664 47.0412Z" fill="#FFDA44"/>
<path d="M275.664 55.1585C277.294 55.1585 278.615 53.8369 278.615 52.2067C278.615 50.5765 277.294 49.255 275.664 49.255C274.033 49.255 272.712 50.5765 272.712 52.2067C272.712 53.8369 274.033 55.1585 275.664 55.1585Z" fill="#F0F0F0"/>
<path d="M274.188 52.0222C273.675 52.0222 273.179 52.1003 272.713 52.2452C272.734 53.8576 274.046 55.1585 275.664 55.1585C276.664 55.1585 277.547 54.6607 278.081 53.8999C277.167 52.7563 275.762 52.0222 274.188 52.0222V52.0222Z" fill="#0052B4"/>
<path d="M278.561 52.7722C278.596 52.5891 278.615 52.4002 278.615 52.2067C278.615 50.5765 277.294 49.255 275.664 49.255C274.447 49.255 273.403 49.9909 272.951 51.0417C273.351 50.9589 273.764 50.9153 274.188 50.9153C275.902 50.9153 277.453 51.628 278.561 52.7722V52.7722Z" fill="#0052B4"/>
</g>
<path d="M295.736 52.2338C296.186 52.3805 296.597 52.6691 296.969 53.0995C297.341 53.5201 297.527 54.0728 297.527 54.7575C297.527 55.3053 297.385 55.8042 297.101 56.2541C296.827 56.7041 296.436 57.0611 295.927 57.3252C295.428 57.5796 294.856 57.7067 294.21 57.7067H289.941V47.4358H294.034C294.631 47.4358 295.164 47.5581 295.634 47.8026C296.103 48.0374 296.465 48.3651 296.72 48.7857C296.984 49.1965 297.116 49.6514 297.116 50.1502C297.116 50.698 296.979 51.148 296.705 51.5001C296.431 51.8523 296.108 52.0968 295.736 52.2338ZM291.643 48.9177V51.6175H293.888C294.338 51.6175 294.704 51.4904 294.988 51.236C295.272 50.9817 295.414 50.654 295.414 50.253C295.414 49.8617 295.272 49.5438 294.988 49.2992C294.704 49.0449 294.338 48.9177 293.888 48.9177H291.643ZM294.064 56.2248C294.582 56.2248 295.003 56.078 295.326 55.7846C295.658 55.4814 295.824 55.095 295.824 54.6254C295.824 54.1657 295.658 53.7891 295.326 53.4956C295.003 53.1924 294.582 53.0408 294.064 53.0408H291.643V56.2248H294.064ZM298.992 57.7067V50.2823H300.195L300.489 51.104H300.562C300.719 50.879 300.958 50.6589 301.281 50.4437C301.604 50.2187 301.976 50.1062 302.396 50.1062C302.641 50.1062 302.846 50.1258 303.012 50.1649V51.7789C302.827 51.7398 302.606 51.7202 302.352 51.7202C301.834 51.7202 301.413 51.8865 301.09 52.2191C300.767 52.5517 300.606 53.0114 300.606 53.5983V57.7067H298.992ZM306.609 50.1062C307.509 50.1062 308.228 50.385 308.766 50.9426C309.304 51.4904 309.573 52.2191 309.573 53.1288V57.7067H308.369L308.076 56.8704H308.003C307.797 57.1345 307.514 57.3693 307.152 57.5747C306.799 57.7801 306.359 57.8828 305.831 57.8828C305.362 57.8828 304.936 57.785 304.555 57.5893C304.173 57.3839 303.875 57.1149 303.66 56.7823C303.444 56.44 303.337 56.0683 303.337 55.6672C303.337 55.1781 303.479 54.7526 303.762 54.3907C304.056 54.019 304.462 53.7353 304.98 53.5397C305.508 53.344 306.11 53.2462 306.785 53.2462H307.973V52.9968C307.973 52.5566 307.846 52.2093 307.592 51.955C307.347 51.6909 307.015 51.5588 306.594 51.5588C306.222 51.5588 305.924 51.6567 305.699 51.8523C305.474 52.0381 305.337 52.268 305.288 52.5419H303.674C303.723 52.1115 303.865 51.7105 304.1 51.3387C304.344 50.967 304.682 50.6687 305.112 50.4437C305.543 50.2187 306.041 50.1062 306.609 50.1062ZM306.169 56.5182C306.707 56.5182 307.142 56.3568 307.474 56.034C307.807 55.7112 307.973 55.3248 307.973 54.8749V54.4054H306.799C306.183 54.4054 305.719 54.5081 305.406 54.7135C305.102 54.9091 304.951 55.183 304.951 55.5352C304.951 55.8286 305.053 56.0683 305.259 56.2541C305.474 56.4302 305.777 56.5182 306.169 56.5182ZM316.203 51.6029L312.623 56.2541H316.32V57.7067H310.73V56.3862L314.31 51.7349H310.803V50.2823H316.203V51.6029ZM319.32 57.7067H317.706V50.2823H319.32V57.7067ZM318.513 49.2405C318.248 49.2405 318.024 49.1525 317.838 48.9764C317.652 48.7906 317.559 48.5656 317.559 48.3015C317.559 48.0276 317.652 47.8026 317.838 47.6265C318.024 47.4407 318.248 47.3477 318.513 47.3477C318.777 47.3477 318.997 47.4407 319.173 47.6265C319.359 47.8026 319.452 48.0276 319.452 48.3015C319.452 48.5656 319.359 48.7906 319.173 48.9764C318.997 49.1525 318.777 49.2405 318.513 49.2405ZM322.875 57.7067H321.261V47.4358H322.875V57.7067Z" fill="#1F1C23"/>
<rect x="-54" y="-153.464" width="195.731" height="451" transform="rotate(-2.49946 -54 -153.464)" fill="url(#paint0_linear_539_168)"/>
</g>
<defs>
<linearGradient id="paint0_linear_539_168" x1="271.907" y1="63.725" x2="-11.7096" y2="66.7579" gradientUnits="userSpaceOnUse">
<stop offset="0.51" stop-color="#1F1C23" stop-opacity="0"/>
<stop offset="1" stop-color="#1F1C23"/>
</linearGradient>
<clipPath id="clip0_539_168">
<rect width="487" height="266" fill="white" transform="translate(0.230469 0.086731)"/>
</clipPath>
<clipPath id="clip1_539_168">
<rect width="17.0054" height="17.0054" fill="white" transform="translate(221.599 174.867)"/>
</clipPath>
<clipPath id="clip2_539_168">
<rect width="17.0054" height="17.0054" fill="white" transform="translate(77.8145 127.683)"/>
</clipPath>
<clipPath id="clip3_539_168">
<rect width="17.0054" height="17.0054" fill="white" transform="translate(110.446 209.262)"/>
</clipPath>
<clipPath id="clip4_539_168">
<rect width="17.0054" height="17.0054" fill="white" transform="matrix(-1 0 0 1 398.491 110.552)"/>
</clipPath>
<clipPath id="clip5_539_168">
<rect width="16.9726" height="16.9726" fill="white" transform="translate(267.177 43.7204)"/>
</clipPath>
</defs>
</svg>
